<?xml version="1.0" encoding="UTF-8"?>
<svg id="Layer_2" data-name="Layer 2" xmlns="http://www.w3.org/2000/svg" viewBox="0 0 51.21 16.48">
  <defs>
    <style>
      .cls-1 {
        fill: #f5ae71;
      }

      .cls-2 {
        fill: #f6dad6;
      }

      .cls-3 {
        fill: #ef7e19;
      }

      .cls-4 {
        fill: #f39b4f;
      }

      .cls-5 {
        fill: #ee7e19;
      }

      .cls-6 {
        fill: #f1923c;
      }

      .cls-7 {
        fill: #d93824;
      }

      .cls-8 {
        fill: #df5251;
      }

      .cls-9 {
        fill: #d42326;
      }

      .cls-10 {
        fill: #d63b25;
      }

      .cls-11 {
        fill: #e16754;
      }
    </style>
  </defs>
  <g id="Layer_1-2" data-name="Layer 1">
    <g>
      <path class="cls-10" d="m31.45,5.59s-.05.05-.07.08c-1.44,2.4-2.88,4.79-4.32,7.19-.33.56-.67,1.11-1,1.67-.01.02-.03.03-.04.05-.01,0-.02,0-.03.01-.17,0-.33,0-.5,0-.24,0-.48,0-.72,0-.07,0-.12-.02-.16-.09-1.04-1.71-2.09-3.42-3.13-5.12-1.17-1.92-2.35-3.84-3.52-5.76-.53-.86-1.06-1.72-1.58-2.58-.03-.06-.06-.13-.06-.19,0-.26,0-.52,0-.78,0-.02,0-.03.02-.06.04,0,.09,0,.13,0,.74,0,1.47,0,2.21,0,.12,0,.19.04.25.14.5.85,1.01,1.69,1.51,2.53.87,1.44,1.73,2.89,2.6,4.33.76,1.26,1.52,2.53,2.28,3.79.02.04.05.07.08.12.03-.05.06-.08.08-.11.91-1.55,1.83-3.1,2.74-4.64,1.17-1.98,2.34-3.96,3.5-5.94.1-.17.2-.23.4-.22.69.01,1.38,0,2.07,0,.05,0,.1,0,.14,0,0,0,.02.01.03.02,0,.12,0,.24,0,.36,0,2.27.01,4.53.02,6.8,0,3.06,0,6.12,0,9.17,0,.03,0,.06,0,.09,0,0-.02.01-.02.02-.1,0-.19,0-.29,0-.8,0-1.6,0-2.4,0-.06,0-.11,0-.19,0,0-.08,0-.15,0-.22,0-1.82,0-3.65-.01-5.47,0-1.55,0-3.11,0-4.66,0-.18,0-.36,0-.53,0,0,0,0,0,0Z"/>
      <path class="cls-9" d="m8.5,16.47c-.06,0-.11,0-.17,0-.9,0-1.8,0-2.7,0-.05,0-.1,0-.13,0-.01-.01-.02-.02-.02-.02,0,0,0,0,0-.01,0,0,0,0,0-.01,0,0,0,0,0-.01,0,0,0,0,0-.01,0,0,0-.02,0-.03s0-.02,0-.03c0-4.56,0-9.11,0-13.67,0,0,0-.02,0-.03,0,0,0,0,0-.01,0,0,0,0,0-.01,0,0,0,0,0-.01,0,0,0,0,0-.03H.03C0,2.49,0,.14.02.01h13.98v2.58h-5.46c0,.07,0,.12,0,.18,0,.81,0,1.62,0,2.43,0,3.67,0,7.34,0,11.01,0,.08,0,.16,0,.25,0,0-.02.01-.03.02Z"/>
      <path class="cls-3" d="m51.18,16.47c-.07,0-.14,0-.21,0-3.96,0-7.91,0-11.87,0h-.26c-.01-.86,0-1.71,0-2.55.1-.03,12.18-.04,12.37-.01,0,.02,0,.05,0,.07,0,.8,0,1.6,0,2.4,0,.02,0,.04,0,.06,0,0-.01.01-.02.02Z"/>
      <path class="cls-5" d="m50.87,2.56c-.1,0-.21.02-.31.02-3.71,0-7.42,0-11.14,0-.14,0-.28,0-.42,0-.05,0-.09,0-.14,0-.03-.1-.05-2.38-.01-2.57.07,0,.14,0,.21,0,3.83,0,7.65,0,11.48,0,.1,0,.2,0,.3,0,.01,0,.03.01.04.02,0,.03,0,.06,0,.09,0,.79,0,1.57,0,2.36,0,.02,0,.03,0,.05,0,0-.01.02-.02.03Z"/>
      <path class="cls-5" d="m38.85,6.66c.05,0,.1,0,.16,0,2.02,0,4.04,0,6.06,0,.04,0,.09,0,.13,0,.03.1.03,2.74.01,2.9-.16.03-6.21.04-6.36,0,0-.03,0-.06,0-.1,0-.91,0-1.83,0-2.74,0,0,0-.02,0-.03,0,0,.01-.02.02-.03Z"/>
      <path class="cls-7" d="m19.21,16.47c-.08,0-.17,0-.25,0-.82,0-1.65,0-2.47,0-.05,0-.1,0-.17,0v-2.92h2.91s.01.05.01.08c0,.93,0,1.85,0,2.78,0,.01,0,.03,0,.04,0,0-.02.01-.02.02Z"/>
      <path class="cls-4" d="m50.88.03s-.03-.01-.04-.02c.01,0,.03.01.04.02Z"/>
      <path class="cls-1" d="m38.85,6.66s-.01.02-.02.03c0,0,.01-.02.02-.03Z"/>
      <path class="cls-2" d="m31.45,5.59s0,0,0,0c0,0,0,0,0,0Z"/>
      <path class="cls-4" d="m50.87,2.56s.01-.02.02-.03c0,0-.01.02-.02.03Z"/>
      <path class="cls-11" d="m25.99,14.59s.02,0,.03-.01c-.01,0-.02,0-.03.01Z"/>
      <path class="cls-11" d="m34.35.03s-.02-.01-.03-.02c0,0,.02.01.03.02Z"/>
      <path class="cls-8" d="m8.5,16.47s.02-.01.03-.02c0,0-.02.01-.03.02Z"/>
      <path class="cls-11" d="m19.21,16.47s.02-.01.02-.02c0,0-.02.01-.02.02Z"/>
      <path class="cls-11" d="m34.35,16.47s.02-.01.02-.02c0,0-.02.01-.02.02Z"/>
      <path class="cls-6" d="m51.18,16.47s.01-.01.02-.02c0,0-.01.01-.02.02Z"/>
    </g>
  </g>
</svg>